<?xml version="1.0" standalone="no"?>
<!DOCTYPE svg PUBLIC "-//W3C//DTD SVG 20010904//EN"
 "http://www.w3.org/TR/2001/REC-SVG-20010904/DTD/svg10.dtd">
<svg version="1.0" xmlns="http://www.w3.org/2000/svg"
 width="518.000000pt" height="518.000000pt" viewBox="0 0 518.000000 518.000000"
 preserveAspectRatio="xMidYMid meet">
<g transform="translate(0.000000,518.000000) scale(0.100000,-0.100000)"
fill="#000000" stroke="none">
<path d="M2707 4979 c7 -7 15 -10 18 -7 3 3 -2 9 -12 12 -14 6 -15 5 -6 -5z"/>
<path d="M2316 4933 c-6 -14 -5 -15 5 -6 7 7 10 15 7 18 -3 3 -9 -2 -12 -12z"/>
<path d="M3757 4815 c-28 -20 -47 -84 -35 -115 5 -14 136 -150 291 -303 346
-341 538 -532 595 -590 37 -38 47 -57 67 -133 12 -49 37 -143 55 -209 18 -66
34 -127 35 -135 2 -8 4 -15 5 -15 1 0 3 -7 5 -15 4 -16 40 -153 75 -280 52
-195 112 -426 112 -435 0 -5 -25 -102 -55 -215 -94 -343 -148 -544 -152 -565
-3 -11 -21 -78 -40 -150 -20 -71 -37 -137 -39 -145 -24 -100 -9 -83 -468 -542
l-442 -442 -145 -38 c-80 -21 -155 -40 -166 -42 -27 -6 -127 -33 -191 -52 -28
-8 -60 -16 -71 -19 -12 -2 -92 -22 -179 -45 -88 -23 -166 -43 -174 -45 -8 -3
-60 -16 -115 -31 -136 -35 -129 -35 -187 -18 -28 9 -59 17 -67 19 -9 2 -86 21
-171 43 -85 22 -245 63 -355 92 -110 28 -217 55 -237 61 -26 7 -38 15 -38 28
0 100 -127 238 -237 257 -13 2 -33 6 -46 8 -32 5 -103 -9 -152 -30 -22 -10
-43 -17 -47 -16 -5 1 -7 -4 -5 -11 1 -6 -6 -11 -15 -11 -10 1 -16 -2 -13 -6 2
-4 -5 -16 -16 -26 -11 -10 -32 -43 -47 -74 -22 -46 -27 -68 -26 -135 0 -67 5
-89 27 -132 32 -63 75 -105 142 -141 42 -22 63 -27 130 -27 69 0 88 4 137 29
32 16 74 46 93 67 30 33 39 37 58 29 12 -6 49 -16 82 -24 33 -8 166 -42 295
-76 129 -33 242 -62 250 -64 107 -26 271 -68 291 -75 14 -4 34 -4 46 0 11 4
33 10 49 12 31 6 314 78 404 103 30 9 62 18 70 20 8 2 67 17 130 34 63 16 127
32 141 35 14 3 65 16 112 30 87 25 151 41 197 51 14 2 54 14 90 25 l65 20 468
467 c258 257 474 478 482 492 11 21 34 98 50 170 2 8 19 71 38 140 71 259 129
476 133 493 2 10 6 27 9 37 3 10 8 27 10 37 3 10 23 86 45 168 65 241 64 226
28 360 -16 61 -31 117 -33 125 -2 8 -17 68 -35 133 -17 64 -33 125 -35 135 -6
24 -194 723 -201 746 -4 10 -104 115 -223 233 -119 118 -331 328 -471 467
-140 139 -265 258 -277 264 -29 16 -84 15 -106 -3z"/>
<path d="M1270 4698 c0 -4 4 -8 9 -8 6 0 12 4 15 8 3 5 -1 9 -9 9 -8 0 -15 -4
-15 -9z"/>
<path d="M1180 4686 c0 -2 8 -10 18 -17 15 -13 16 -12 3 4 -13 16 -21 21 -21
13z"/>
<path d="M630 4060 c0 -5 5 -10 11 -10 5 0 7 5 4 10 -3 6 -8 10 -11 10 -2 0
-4 -4 -4 -10z"/>
<path d="M630 3936 c0 -2 8 -10 18 -17 15 -13 16 -12 3 4 -13 16 -21 21 -21
13z"/>
<path d="M149 2623 c-13 -16 -12 -17 4 -4 9 7 17 15 17 17 0 8 -8 3 -21 -13z"/>
<path d="M236 1893 c-6 -14 -5 -15 5 -6 7 7 10 15 7 18 -3 3 -9 -2 -12 -12z"/>
<path d="M470 1436 c0 -2 8 -10 18 -17 15 -13 16 -12 3 4 -13 16 -21 21 -21
13z"/>
<path d="M919 973 c-13 -16 -12 -17 4 -4 9 7 17 15 17 17 0 8 -8 3 -21 -13z"/>
</g>
</svg>
